<?xml version="1.0" encoding="utf-8"?>
<!-- Generator: Adobe Illustrator 19.0.1, SVG Export Plug-In . SVG Version: 6.00 Build 0)  -->
<svg version="1.1" id="Слой_1" xmlns="http://www.w3.org/2000/svg" xmlns:xlink="http://www.w3.org/1999/xlink" x="0px" y="0px"
	 viewBox="0 0 114.5 60" style="enable-background:new 0 0 114.5 60;" xml:space="preserve">
<style type="text/css">
	.st0{fill:#EA5E7F;stroke:#000000;stroke-miterlimit:10;}
	.st1{fill:#3B424C;stroke:#000000;stroke-miterlimit:10;}
	.st2{fill:#C6C6C6;stroke:#000000;stroke-miterlimit:10;}
</style>
<path class="st0" d="M105.4,34.8l8,2.8l0.5,0.6l-0.4,2.5l-1.6,3.5l-3.3,3.6l-8.3,4.7H74.7L68.3,58H55.5l0.6-2.1l-0.6-0.1L47.7,58
	c5.5-3.1,11-6.2,16.5-9.3c11.7,0.2,23.4,0.4,35.1,0.6l7.5-4.3L105.4,34.8z"/>
<polygon class="st0" points="74.1,25.1 82.2,25.9 87,29.5 79.5,30.1 "/>
<polygon class="st1" points="89.9,26.5 85.3,19.7 67.5,15.7 67.5,6.7 59.5,9.1 56.1,1 42.2,17 39.3,17.4 11.4,42 19.7,42 1.8,58 
	26.8,58 40,47 52.6,47.1 47,37.7 40.2,37.6 64.8,28.9 70.4,20.5 84.7,22.9 "/>
<polygon class="st2" points="55.4,8 59,20.4 53.6,18.8 56.3,23.6 49.4,25.1 45.9,20.1 "/>
</svg>
